<?xml version="1.0" encoding="UTF-8" standalone="no"?>
<!DOCTYPE svg PUBLIC "-//W3C//DTD SVG 1.1//EN" "http://www.w3.org/Graphics/SVG/1.1/DTD/svg11.dtd">
<svg version="1.1" xmlns="http://www.w3.org/2000/svg" xmlns:xlink="http://www.w3.org/1999/xlink" preserveAspectRatio="xMidYMid meet" viewBox="0 0 500 500" width="100" height="100" stroke-linecap="round" stroke-linejoin="round"><defs><path d="M274.93 59.59L274.93 86.25L282.26 87.29L290.09 88.73L297.8 90.48L305.4 92.51L312.88 94.84L320.22 97.45L327.43 100.34L334.5 103.49L341.43 106.91L348.19 110.59L354.8 114.52L361.24 118.7L367.5 123.11L373.59 127.75L379.49 132.62L385.19 137.71L390.7 143.01L396 148.51L401.08 154.22L405.95 160.11L410.6 166.2L415.01 172.46L419.18 178.9L423.11 185.51L426.79 192.28L430.21 199.2L433.37 206.27L436.25 213.48L438.86 220.83L441.19 228.3L443.23 235.9L444.97 243.62L446.41 251.44L447.54 259.37L448.35 267.39L448.85 275.5L449.02 283.7L448.85 291.9L448.35 300.01L447.54 308.04L446.41 315.97L444.97 323.79L443.23 331.5L441.19 339.1L438.86 346.58L436.25 353.93L433.37 361.14L430.21 368.21L426.79 375.13L423.11 381.9L419.18 388.5L415.01 394.94L410.6 401.21L405.95 407.29L401.08 413.19L396 418.89L390.7 424.4L385.19 429.7L379.49 434.79L373.59 439.65L367.5 444.3L361.24 448.71L354.8 452.88L348.19 456.81L341.43 460.49L334.5 463.91L327.43 467.07L320.22 469.95L312.88 472.56L305.4 474.89L297.8 476.93L290.09 478.67L282.26 480.11L274.34 481.24L266.31 482.06L258.2 482.55L250 482.72L241.8 482.55L233.69 482.06L225.66 481.24L217.74 480.11L209.91 478.67L202.2 476.93L194.6 474.89L187.12 472.56L179.78 469.95L172.57 467.07L165.5 463.91L158.57 460.49L151.81 456.81L145.2 452.88L138.76 448.71L132.5 444.3L126.41 439.65L120.51 434.79L114.81 429.7L109.3 424.4L104 418.89L98.92 413.19L94.05 407.29L89.4 401.21L84.99 394.94L80.82 388.5L76.89 381.9L73.21 375.13L69.79 368.21L66.63 361.14L63.75 353.93L61.14 346.58L58.81 339.1L56.77 331.5L55.03 323.79L53.59 315.97L52.46 308.04L51.65 300.01L51.15 291.9L50.98 283.7L51.15 275.5L51.65 267.39L52.46 259.37L53.59 251.44L55.03 243.62L56.77 235.9L58.81 228.3L61.14 220.83L63.75 213.48L66.63 206.27L69.79 199.2L73.21 192.28L76.89 185.51L80.82 178.9L84.99 172.46L89.4 166.2L94.05 160.11L98.92 154.22L104 148.51L109.3 143.01L114.81 137.71L120.51 132.62L126.41 127.75L132.5 123.11L138.76 118.7L145.2 114.52L151.81 110.59L158.57 106.91L165.5 103.49L172.57 100.34L179.78 97.45L187.12 94.84L194.6 92.51L202.2 90.48L209.91 88.73L217.74 87.29L225.07 86.25L225.07 59.59L179.88 59.59L179.88 17.28L320.12 17.28L320.12 59.59L274.93 59.59Z" id="g2grt8X07g"></path><path d="M264.05 283.7C264.05 291.46 257.76 297.76 250 297.76C242.24 297.76 235.95 291.46 235.95 283.7C235.95 275.95 242.24 269.65 250 269.65C257.76 269.65 264.05 275.95 264.05 283.7Z" id="b1ju6wzslR"></path><path d="M352.6 176.3L259.81 272.52" id="bhZgAvCSq"></path></defs><g><g><g><g><g><use xlink:href="#g2grt8X07g" opacity="1" fill-opacity="0" stroke="#000000" stroke-width="15" stroke-opacity="1"></use></g></g><g><g><use xlink:href="#b1ju6wzslR" opacity="1" fill-opacity="0" stroke="#000000" stroke-width="15" stroke-opacity="1"></use></g></g></g><g><g><use xlink:href="#bhZgAvCSq" opacity="1" fill-opacity="0" stroke="#000000" stroke-width="15" stroke-opacity="1"></use></g></g></g></g></svg>